<mxfile host="app.diagrams.net" modified="2023-03-27T16:51:52.612Z" agent="Mozilla/5.0 (Windows NT 10.0; Win64; x64) AppleWebKit/537.36 (KHTML, like Gecko) Chrome/111.0.0.0 Safari/537.36" etag="GveLyPvxo-N15Dw1QP-e" version="21.1.1" type="github">
  <diagram name="Page-1" id="Ba9efXdCyENm1gn2X2oc">
    <mxGraphModel dx="794" dy="1530" grid="1" gridSize="10" guides="1" tooltips="1" connect="1" arrows="1" fold="1" page="1" pageScale="1" pageWidth="850" pageHeight="1100" background="none" math="0" shadow="0">
      <root>
        <mxCell id="0" />
        <mxCell id="1" parent="0" />
        <mxCell id="UFlICYP3oJl1Q4FQACFf-45" style="edgeStyle=orthogonalEdgeStyle;rounded=0;orthogonalLoop=1;jettySize=auto;html=1;exitX=0;exitY=0.5;exitDx=0;exitDy=0;" edge="1" parent="1" source="2" target="UFlICYP3oJl1Q4FQACFf-25">
          <mxGeometry relative="1" as="geometry" />
        </mxCell>
        <mxCell id="UFlICYP3oJl1Q4FQACFf-46" style="edgeStyle=orthogonalEdgeStyle;rounded=0;orthogonalLoop=1;jettySize=auto;html=1;exitX=1;exitY=0.5;exitDx=0;exitDy=0;entryX=0.5;entryY=0;entryDx=0;entryDy=0;" edge="1" parent="1" source="2" target="11">
          <mxGeometry relative="1" as="geometry" />
        </mxCell>
        <mxCell id="2" value="Landing On Web Application" style="rounded=1;absoluteArcSize=1;arcSize=14;whiteSpace=wrap;strokeWidth=2;fillColor=#d5e8d4;strokeColor=#82b366;gradientColor=#97d077;" parent="1" vertex="1">
          <mxGeometry x="335" width="180" height="34" as="geometry" />
        </mxCell>
        <mxCell id="UFlICYP3oJl1Q4FQACFf-44" style="edgeStyle=orthogonalEdgeStyle;rounded=0;orthogonalLoop=1;jettySize=auto;html=1;exitX=0.5;exitY=1;exitDx=0;exitDy=0;entryX=0.5;entryY=0;entryDx=0;entryDy=0;" edge="1" parent="1" source="3" target="4">
          <mxGeometry relative="1" as="geometry" />
        </mxCell>
        <mxCell id="3" value="Instructor creates account" style="rounded=1;absoluteArcSize=1;arcSize=14;whiteSpace=wrap;strokeWidth=2;fillColor=#f5f5f5;strokeColor=#666666;gradientColor=#b3b3b3;" parent="1" vertex="1">
          <mxGeometry x="117" y="150" width="204" height="31" as="geometry" />
        </mxCell>
        <mxCell id="UFlICYP3oJl1Q4FQACFf-41" style="edgeStyle=orthogonalEdgeStyle;rounded=0;orthogonalLoop=1;jettySize=auto;html=1;exitX=0;exitY=0.5;exitDx=0;exitDy=0;entryX=0.417;entryY=0;entryDx=0;entryDy=0;entryPerimeter=0;" edge="1" parent="1" source="4" target="7">
          <mxGeometry relative="1" as="geometry" />
        </mxCell>
        <mxCell id="UFlICYP3oJl1Q4FQACFf-42" style="edgeStyle=orthogonalEdgeStyle;rounded=0;orthogonalLoop=1;jettySize=auto;html=1;exitX=1;exitY=0.5;exitDx=0;exitDy=0;entryX=0.5;entryY=0;entryDx=0;entryDy=0;" edge="1" parent="1" source="4" target="6">
          <mxGeometry relative="1" as="geometry" />
        </mxCell>
        <mxCell id="4" value="Instructor builds course" style="rounded=1;absoluteArcSize=1;arcSize=14;whiteSpace=wrap;strokeWidth=2;gradientColor=#7ea6e0;fillColor=#dae8fc;strokeColor=#6c8ebf;" parent="1" vertex="1">
          <mxGeometry x="127" y="210" width="184" height="34" as="geometry" />
        </mxCell>
        <mxCell id="UFlICYP3oJl1Q4FQACFf-37" style="edgeStyle=orthogonalEdgeStyle;rounded=0;orthogonalLoop=1;jettySize=auto;html=1;exitX=0.5;exitY=1;exitDx=0;exitDy=0;entryX=0.667;entryY=0.02;entryDx=0;entryDy=0;entryPerimeter=0;" edge="1" parent="1" source="6" target="UFlICYP3oJl1Q4FQACFf-23">
          <mxGeometry relative="1" as="geometry" />
        </mxCell>
        <mxCell id="6" value="Live Classes On ZoomÂ " style="rounded=1;absoluteArcSize=1;arcSize=14;whiteSpace=wrap;strokeWidth=2;fillColor=#0050ef;strokeColor=#001DBC;fontColor=#ffffff;" parent="1" vertex="1">
          <mxGeometry x="290.5" y="319" width="157" height="34" as="geometry" />
        </mxCell>
        <mxCell id="UFlICYP3oJl1Q4FQACFf-29" style="edgeStyle=orthogonalEdgeStyle;rounded=0;orthogonalLoop=1;jettySize=auto;html=1;" edge="1" parent="1">
          <mxGeometry relative="1" as="geometry">
            <mxPoint x="90" y="270" as="targetPoint" />
            <mxPoint x="90" y="270" as="sourcePoint" />
          </mxGeometry>
        </mxCell>
        <mxCell id="UFlICYP3oJl1Q4FQACFf-35" value="" style="edgeStyle=orthogonalEdgeStyle;rounded=0;orthogonalLoop=1;jettySize=auto;html=1;" edge="1" parent="1" source="7" target="UFlICYP3oJl1Q4FQACFf-34">
          <mxGeometry relative="1" as="geometry">
            <Array as="points">
              <mxPoint x="78" y="340" />
              <mxPoint x="78" y="340" />
            </Array>
          </mxGeometry>
        </mxCell>
        <mxCell id="7" value="Upload The Lessons" style="rounded=1;absoluteArcSize=1;arcSize=14;whiteSpace=wrap;strokeWidth=2;fillColor=#ffcd28;strokeColor=#d79b00;gradientDirection=north;gradientColor=#ffa500;" parent="1" vertex="1">
          <mxGeometry x="20" y="320" width="120" height="34" as="geometry" />
        </mxCell>
        <mxCell id="UFlICYP3oJl1Q4FQACFf-48" style="edgeStyle=orthogonalEdgeStyle;rounded=0;orthogonalLoop=1;jettySize=auto;html=1;exitX=0.5;exitY=1;exitDx=0;exitDy=0;entryX=0.5;entryY=0;entryDx=0;entryDy=0;" edge="1" parent="1" source="9" target="10">
          <mxGeometry relative="1" as="geometry" />
        </mxCell>
        <mxCell id="9" value="Student creates account" style="rounded=1;absoluteArcSize=1;arcSize=14;whiteSpace=wrap;strokeWidth=2;fillColor=#f5f5f5;strokeColor=#666666;gradientColor=#b3b3b3;" parent="1" vertex="1">
          <mxGeometry x="548" y="147" width="190" height="34" as="geometry" />
        </mxCell>
        <mxCell id="UFlICYP3oJl1Q4FQACFf-49" style="edgeStyle=orthogonalEdgeStyle;rounded=0;orthogonalLoop=1;jettySize=auto;html=1;exitX=0;exitY=0.5;exitDx=0;exitDy=0;entryX=1;entryY=0.75;entryDx=0;entryDy=0;" edge="1" parent="1" source="10" target="6">
          <mxGeometry relative="1" as="geometry" />
        </mxCell>
        <mxCell id="UFlICYP3oJl1Q4FQACFf-50" style="edgeStyle=orthogonalEdgeStyle;rounded=0;orthogonalLoop=1;jettySize=auto;html=1;exitX=0.5;exitY=1;exitDx=0;exitDy=0;entryX=0.5;entryY=0;entryDx=0;entryDy=0;" edge="1" parent="1" source="10" target="12">
          <mxGeometry relative="1" as="geometry" />
        </mxCell>
        <mxCell id="10" value="Student enrolls in course" style="rounded=1;absoluteArcSize=1;arcSize=14;whiteSpace=wrap;strokeWidth=2;fillColor=#dae8fc;gradientColor=#7ea6e0;strokeColor=#6c8ebf;" parent="1" vertex="1">
          <mxGeometry x="554" y="200" width="193" height="34" as="geometry" />
        </mxCell>
        <mxCell id="UFlICYP3oJl1Q4FQACFf-47" style="edgeStyle=orthogonalEdgeStyle;rounded=0;orthogonalLoop=1;jettySize=auto;html=1;exitX=0.5;exitY=1;exitDx=0;exitDy=0;entryX=0.537;entryY=-0.069;entryDx=0;entryDy=0;entryPerimeter=0;" edge="1" parent="1" source="11" target="9">
          <mxGeometry relative="1" as="geometry" />
        </mxCell>
        <mxCell id="11" value="Start learning" style="rounded=1;absoluteArcSize=1;arcSize=14;whiteSpace=wrap;strokeWidth=2;fillColor=#fff2cc;strokeColor=#d6b656;gradientColor=#ffd966;" parent="1" vertex="1">
          <mxGeometry x="594" y="90" width="113" height="34" as="geometry" />
        </mxCell>
        <mxCell id="12" value="Access The Lessons" style="rounded=1;absoluteArcSize=1;arcSize=14;whiteSpace=wrap;strokeWidth=2;fillColor=#ffcd28;strokeColor=#d79b00;gradientColor=#ffa500;" parent="1" vertex="1">
          <mxGeometry x="576" y="319" width="149" height="34" as="geometry" />
        </mxCell>
        <mxCell id="UFlICYP3oJl1Q4FQACFf-39" style="edgeStyle=orthogonalEdgeStyle;rounded=0;orthogonalLoop=1;jettySize=auto;html=1;exitX=0;exitY=0.5;exitDx=0;exitDy=0;entryX=1;entryY=0.25;entryDx=0;entryDy=0;" edge="1" parent="1" source="UFlICYP3oJl1Q4FQACFf-23" target="7">
          <mxGeometry relative="1" as="geometry" />
        </mxCell>
        <mxCell id="UFlICYP3oJl1Q4FQACFf-23" value="End meeting" style="rounded=1;absoluteArcSize=1;arcSize=14;whiteSpace=wrap;strokeWidth=2;fillColor=#e51400;fontColor=#ffffff;strokeColor=#B20000;" vertex="1" parent="1">
          <mxGeometry x="300" y="388" width="104" height="34" as="geometry" />
        </mxCell>
        <mxCell id="UFlICYP3oJl1Q4FQACFf-43" style="edgeStyle=orthogonalEdgeStyle;rounded=0;orthogonalLoop=1;jettySize=auto;html=1;exitX=0.5;exitY=1;exitDx=0;exitDy=0;entryX=0.5;entryY=0;entryDx=0;entryDy=0;" edge="1" parent="1" source="UFlICYP3oJl1Q4FQACFf-25" target="3">
          <mxGeometry relative="1" as="geometry" />
        </mxCell>
        <mxCell id="UFlICYP3oJl1Q4FQACFf-25" value="Start Teaching" style="rounded=1;absoluteArcSize=1;arcSize=14;whiteSpace=wrap;strokeWidth=2;fillColor=#fff2cc;strokeColor=#d6b656;gradientColor=#ffd966;" vertex="1" parent="1">
          <mxGeometry x="152.5" y="90" width="133" height="34" as="geometry" />
        </mxCell>
        <mxCell id="UFlICYP3oJl1Q4FQACFf-34" value="Publish The course" style="rounded=1;absoluteArcSize=1;arcSize=14;whiteSpace=wrap;strokeWidth=2;fillColor=#d5e8d4;strokeColor=#82b366;gradientDirection=north;gradientColor=#97d077;" vertex="1" parent="1">
          <mxGeometry x="20" y="388" width="116" height="34" as="geometry" />
        </mxCell>
      </root>
    </mxGraphModel>
  </diagram>
</mxfile>
